<svg id="Calque_1" data-name="Calque 1" xmlns="http://www.w3.org/2000/svg" viewBox="0 0 1647 1027.36"><defs><style>.cls-1{opacity:0.5;}.cls-2{fill:#f2f2f2;}.cls-10,.cls-11,.cls-12,.cls-13,.cls-14,.cls-15,.cls-16,.cls-17,.cls-18,.cls-19,.cls-2,.cls-20,.cls-3,.cls-5,.cls-6,.cls-8,.cls-9{fill-rule:evenodd;}.cls-3,.cls-8{fill:#c1dee2;}.cls-3{opacity:0.2;isolation:isolate;}.cls-4{opacity:0.7;}.cls-5{fill:#69a1ac;}.cls-6{fill:#89c5cc;}.cls-7{opacity:0.5;}.cls-9{fill:#d4a181;}.cls-10{fill:#191847;}.cls-11{fill:#ba8b72;}.cls-12{fill:#2026a2;}.cls-13{fill:#1f28cf;}.cls-14{fill:#b28b67;}.cls-15{fill:#997659;}.cls-16{fill:#e4e4e4;}.cls-17{fill:#e87613;}.cls-18{fill:#dde3e9;}.cls-19{fill:#ff9b21;}.cls-20{fill-opacity:0.1;}</style></defs><title>bg</title><g id="Background-Shape-2" class="cls-1"><path id="Background-Shape" class="cls-2" d="M1399.15,792.66c15.78,118-366.72,194.92-695.94,141.22S223,670.46,380.06,558.72,1383.38,674.68,1399.15,792.66Z" transform="translate(-107 -23.47)"/></g><path id="Leaf-Bottom" class="cls-2" d="M1022.12,296.48c-8.44-4.18-19.69.67-15,11.73,5,11.84,23.6,12,34.1,11.75-1,0-4.44-10.91-5.59-12.55C1032.22,302.57,1027.3,299.06,1022.12,296.48Zm97.2,212.33C1121.45,510.63,1119.5,509,1119.32,508.81ZM1014,350.05c-4.94,3.77-5.17,10.43-1.14,14.94,4.8,5.37,13.57,5.18,20.12,4.65,3-.23,18.77-1.5,15-4.09a13.53,13.53,0,0,1,1.54.74c.34,1.26.71,2.53,1.09,3.78l-.28.17.28-.15a145.68,145.68,0,0,0,16.3,35.72,33.69,33.69,0,0,0-8.18-2.19c-8.25-1-25.6,5.37-16.37,16.35,8.84,10.53,22.62-.77,32.66-2.33a468.59,468.59,0,0,0,31.72,39.21,2.71,2.71,0,0,0-1.64,1.37c-4.51-2.29-9.22-5.57-13.39-6.46-6-1.28-18.39-2.05-23,3.35-5.6,6.63.4,12,7,13.29,9.6,1.85,22.17-2.84,31.41-6a3.05,3.05,0,0,0,2.9-1l.61-.2c11.39,12.53,23.22,24.65,35,36.5l-.38,0a31.73,31.73,0,0,0-9.92-4.53c-8.25-2-18-2-24.65,3.95s-9,16.34-2.14,23c13.81,13.36,34.16-17.1,41.13-18.37,11.94,11.91,24.58,23,37.41,34a22.49,22.49,0,0,0-4.49-.91c-12.59-1.21-42.13,14.22-26.68,29.4,13.46,13.23,29-12.23,39.88-21.14,12.1,10.17,24.25,20.27,36.07,30.76a34.44,34.44,0,0,0-19.58.12c-7.15,2.17-18.69,7.57-14.17,17.22,4.6,9.82,18.45,5.35,25.67,2.23,3.93-1.7,11.82-7.44,18.75-9.85,18.86,17.8,35.2,37.41,47.56,60.52a207.9,207.9,0,0,1,17.71,45.67c2.63,10.11,7.81,27.09,6.78,40.24,4.95-26.33-4-58-13.64-81.51-8.87-21.64-22.13-40.65-37.67-57.75,3.9-11.73,36.72-28.65,17.1-39.54-10.42-5.76-21.09,3.8-23.37,13.92-1.56,7,.82,15.7,3.35,22.45q-7.34-7.81-15.2-15.14c-7.24-6.74-14.65-13.29-22.13-19.76,12.33-11.58,24-44.68,7.47-50.09-24.41-8-12.66,37.18-11,45.64a1.29,1.29,0,0,0,1.13-.43c-.13.78-.29,1.61-.49,2.44-14.31-12.31-28.84-24.38-42.89-37,1.27-.94,3.28-4.51,4.86-6.41a72.31,72.31,0,0,0,9.48-13.79c3.94-7.93,7.74-20.58-2.71-25.25-11.36-5.08-16.76,9.23-16.84,17.76-.06,5.91,1.55,11.51,2.39,17.3.26,1.8-.75,9.94,1.71,6.44a16.38,16.38,0,0,0-.07,2.88q-3.8-3.4-7.52-6.88a3.06,3.06,0,0,0,.22-1,2.94,2.94,0,0,0-4.22-2.77q-4.92-4.68-9.72-9.5c-6.77-6.83-13.63-13.84-20.45-21,1.48-1.27.89-3,2.28-4.38s4.1-2.09,5.72-3.34A39.26,39.26,0,0,0,1152.4,451c4-7.45,9.27-23.08-2.54-26.63-12.18-3.67-18.36,11.38-19.14,20.79a239.57,239.57,0,0,0,2.26,24.21c-12.61-13.33-25-27.15-36.25-41.21,3.4,0,13.06-7,15-8.91,4.76-4.65,12.34-14.92,4-20.35-7.43-4.82-16.58,2.16-19.76,8.94-.52,1.12-2.36,11.52-2.5,16.18-4.66-6-9.09-12-13.22-18q-4.12-6-7.73-12.3a5.65,5.65,0,0,0,1.64-1.61c12.39-2.1,28.18-21.43,13.63-28.16-6.93-3.19-14.44,3.41-17.84,8.81-.69,1.11-1.82,6.67-2.73,11.05A231.68,231.68,0,0,1,1051,340.19a2.7,2.7,0,0,0,2.11-2.51c6-3.43,10.77-6.28,15-12.87,2.61-4.1,7.3-13.46-.36-15.73-10-3-16.24,12.28-17.06,19.78-.09.87-.09,3.4-.05,5.73a3.3,3.3,0,0,0-1,0c-2.3-9.33-4.12-18.79-5.58-28.26,5.45-1.76,6.39-30.35,2.76-34.42-8.1-9.11-13.81,4.06-13.38,11,.51,8.21,4.23,15.67,8.65,22.3.48.7.34.67.47-.31a2,2,0,0,0,.47,1.1,122,122,0,0,0-.46,12.56,288.36,288.36,0,0,0,3.74,32.76c.45,2.63,1,5.23,1.54,7.82a63.94,63.94,0,0,0-12.58-8.08C1029.18,348.4,1019.94,345.5,1014,350.05Zm301.35,380a31,31,0,0,1-2.25,10.2A81.69,81.69,0,0,0,1315.34,730Z" transform="translate(-107 -23.47)"/><path id="Leaf-Top" class="cls-3" d="M467.79,66c6-3,14.06.48,10.7,8.38-3.59,8.46-16.86,8.56-24.35,8.4.75,0,3.16-7.8,4-9A25.38,25.38,0,0,1,467.79,66ZM398.4,220.16C396.27,222,398.23,220.33,398.4,220.16ZM474.79,105.3a7.2,7.2,0,0,1,.83,10.81c-3.51,3.88-9.91,3.74-14.69,3.37-2.17-.17-13.71-1.08-11-3a9.59,9.59,0,0,0-1.12.53c-.26.92-.52,1.83-.8,2.74l.2.12-.2-.1a105,105,0,0,1-11.92,25.83,25.17,25.17,0,0,1,6-1.59c6-.75,18.69,3.87,11.94,11.82-6.46,7.61-16.51-.55-23.84-1.67A342.31,342.31,0,0,1,407,182.56a2,2,0,0,1,1.2,1c3.3-1.66,6.73-4,9.78-4.67,4.4-.93,13.43-1.49,16.75,2.41,4.09,4.79-.29,8.69-5.13,9.61-7,1.34-16.18-2.05-22.93-4.33a2.24,2.24,0,0,1-2.11-.7l-.45-.14c-8.32,9.06-17,17.82-25.55,26.4l.27,0a23.74,23.74,0,0,1,7.25-3.28c6-1.45,13.11-1.46,18,2.85s6.59,11.81,1.55,16.64c-10.09,9.67-24.94-12.35-30-13.27-8.73,8.62-18,16.67-27.34,24.57a17.3,17.3,0,0,1,3.29-.67c9.19-.87,30.75,10.27,19.47,21.25-9.83,9.58-21.2-8.83-29.12-15.26-8.83,7.35-17.71,14.66-26.34,22.25a25.31,25.31,0,0,1,14.3.08c5.22,1.56,13.64,5.46,10.33,12.44s-13.47,3.88-18.74,1.63c-2.87-1.23-8.63-5.38-13.69-7.12C294,287.1,282.08,301.29,273,318a149.53,149.53,0,0,0-12.94,33c-1.92,7.31-5.72,19.59-5,29.1-3.61-19,2.94-41.92,10-58.94,6.48-15.66,16.18-29.4,27.53-41.78-2.85-8.48-26.8-20.7-12.47-28.58,7.61-4.17,15.39,2.74,17.05,10.06,1.14,5-.6,11.35-2.45,16.23q5.36-5.65,11.11-10.95c5.28-4.88,10.69-9.62,16.16-14.3-9-8.37-17.5-32.3-5.43-36.22,17.82-5.77,9.22,26.88,8,33a1,1,0,0,1-.83-.31c.09.56.21,1.16.35,1.77,10.46-8.91,21.07-17.64,31.33-26.76-.92-.68-2.39-3.26-3.54-4.64a52,52,0,0,1-6.92-10c-2.87-5.74-5.65-14.88,2-18.26,8.3-3.68,12.24,6.67,12.29,12.84,0,4.26-1.14,8.32-1.75,12.5-.19,1.31.54,7.19-1.25,4.66a13,13,0,0,1,.05,2.09q2.76-2.47,5.49-5a2,2,0,0,1-.16-.71,2.15,2.15,0,0,1,3.08-2q3.6-3.37,7.1-6.87c4.95-4.93,10-10,14.94-15.2-1.08-.92-.65-2.19-1.66-3.16s-3-1.51-4.18-2.41a28.56,28.56,0,0,1-7.24-8.85c-2.94-5.39-6.75-16.69,1.87-19.26,8.89-2.66,13.4,8.22,14,15a173.71,173.71,0,0,1-1.66,17.51c9.21-9.64,18.27-19.63,26.48-29.81-2.49,0-9.54-5.06-11-6.44-3.48-3.36-9-10.78-2.9-14.71,5.42-3.49,12.1,1.56,14.42,6.46a68,68,0,0,1,1.82,11.7c3.4-4.32,6.64-8.65,9.66-13q3-4.34,5.65-8.89a4.25,4.25,0,0,1-1.2-1.17c-9-1.52-20.56-15.49-9.94-20.35,5.06-2.32,10.54,2.45,13,6.36.51.8,1.33,4.82,2,8a166.67,166.67,0,0,0,11.87-31.59,2,2,0,0,1-1.54-1.82c-4.39-2.47-7.86-4.54-10.92-9.3-1.9-3-5.33-9.73.27-11.37C442.88,73.55,447.45,84.57,448,90c.07.63.07,2.46,0,4.14a2.76,2.76,0,0,1,.76,0c1.68-6.75,3-13.59,4.08-20.44-4-1.26-4.65-21.94-2-24.88,5.92-6.59,10.09,2.92,9.77,8-.38,5.93-3.1,11.33-6.33,16.12-.35.51-.25.48-.34-.22a1.44,1.44,0,0,1-.34.79,89.79,89.79,0,0,1,.33,9.09,209.35,209.35,0,0,1-2.74,23.68q-.5,2.85-1.13,5.66a46.09,46.09,0,0,1,9.19-5.85C463.7,104.11,470.45,102,474.79,105.3ZM254.42,379.38a14.54,14.54,0,0,0,2.07,6.77A38.4,38.4,0,0,1,254.42,379.38Z" transform="translate(-107 -23.47)"/><g id="Plant-Right" class="cls-4"><path class="cls-5" d="M1186.23,555c23.43-1.22,52.41,12.46,54.91,37.93,1.81,18.5,1.25,37,4.06,55.43a149.74,149.74,0,0,0,13.48,42.4c6.24,12.94,19.17,24,22.53,37.77,2.14,8.8.94,21.19-2,29.8-3.6,10.47-1.69,9.65,5.47,18.43,14,17.22,26.68,34.88,35.61,55.45,12.88,29.62,21.31,64.25,16.54,96.67-.61,4.12-1.33,18.9-7,19.93-6.33,1.15-3.37-7.3-3-10,2.16-17.42,4.07-32.64,1.48-50.33-10-68.26-59-113.23-90.88-171.16-1.76-3-5.46-10.1-8-14.8-4.06-7.41-8.14-21.5-13.64-27-10.36-10.35-.84,10.46,1.18,14.43,2.55,5,5.36,10.37,8,14.77,12,20.41,25.32,42.69,37.67,63.72-53.43,12.18-91.06-52.06-105.4-94.29-11.82-34.8-26-116.15,29.1-119.12" transform="translate(-107 -23.47)"/><path class="cls-6" d="M1500.28,490.38c-39.17,3.11-64.32,29-76,65.11-6.3,19.48-7,39.49-10.53,59.51-5.28,30.13-16.62,53-38.8,74.41a75,75,0,0,0-15.53,20.77,88.55,88.55,0,0,0-17.93,25.63c-5.84,12.87-7.49,28.33-.75,41.17,1.81,3.45,6.33,10.38,11,13.53-17.53,37.34-27.17,78.24-26.09,119.09.66,24.66,1.87,49.33,3.27,74,.38,6.61,2.53,17.53,5.77,6.44,3-10.14-.76-26.07-1.1-36.67-1.67-51.62-3.1-98.56,18.15-146.8q3.35-7.57,7-15l.42-.28.27.22c.16-.28.37-.62.62-1a12.93,12.93,0,0,0,1.91-2.68c1.89-2.61,4-5.68,4-7.36v0c13.15-21.48,28.22-41.77,43.61-61.67-.11.15,16.7-22.74,14.1-10.08-1.25,6.1-13.62,17.71-18.61,24.17a602.94,602.94,0,0,0-34.8,50.2c-1.46.84-3.5,4.93-5,8-.82,1.54-1.58,3.1-2.33,4.46,38.2,12.62,67.91-12.8,88.17-42.37l.07-.11c6.17-8.17,12.49-16.28,20.38-22.74,13.16-10.77,27.26-12.68,42.78-18,42.33-14.46,60.33-69.32,66-110,6.45-45.92-25.09-116.34-80.16-111.81" transform="translate(-107 -23.47)"/><path class="cls-6" d="M1422.9,361.78c-40.2,41.84-59.62,99.88-75,154.43-17.18,60.94-28.52,122.81-29,186.17-.28,41.62-1.41,83.5,1,125.08.87,14.76,2.34,29.56,4.68,44.16.19,1.2,5.43,33.82,10.44,26.22,2.85-4.33-5.37-33.84-6-38.75-3.49-27.69-4.3-55.57-4.13-83.46.28-45.91-1.08-91.58,3.58-137.33.69-6.83,1.24-14,2.86-20.68,1.72-7.1-.47-4,5.14-6.81,5.45-2.74,12.19-2.35,17.84-5.78,22.44-13.6,33.92-48.55,42.85-71.48,10.22-26.22,16.43-54.18,21.39-81.77a576.6,576.6,0,0,0,7.71-61c.47-6.47.5-13.24,1.77-19.6.34-1.72,2.06-4.76,2-6.28-.13-3.21-2.08-5.11-2.24-7.81-1.68,1.51-3.33,3.07-4.95,4.65" transform="translate(-107 -23.47)"/><path id="Base" class="cls-6" d="M1203.7,919.24a125.29,125.29,0,1,0,250.57,0" transform="translate(-107 -23.47)"/><path class="cls-5" d="M1339,919.42h-6.62a221.68,221.68,0,0,1,2.45-24.81c5.31-31.42,21.92-77.55,58.34-82.65a94.11,94.11,0,0,1,12.27.13,22.09,22.09,0,0,1,9.36-2.77c31-2.28,65.64,22.73,80.6,48.76,12.06,21,10,48.55,2.58,70.85-5,14.93-15.88,36.22-34,36.42-22.71.26-23.8-27.8-24.24-44.21-.58-21.82-3.34-40.82-20.53-55.69-4-3.46-8.38-6.51-12.43-9.93-6.34-5.34-13.34-10.82-14.16-19.66-1.12-12.21,5.77-14.4,16.28-12.13,1.8.38,19.86,8.49,17.18,2.08-.81-2-3.8-3.51-7.56-4.67-9.74-1.06-21.35-2.29-24.69-1.55-36,7.9-50.07,57.82-53.79,89.53C1339.65,912.54,1339.32,916,1339,919.42Z" transform="translate(-107 -23.47)"/></g><g id="Plant-Left" class="cls-7"><path id="Leaf" class="cls-5" d="M412.88,325.18c7.21-10.29,20.59-36.41,30.74-40.08,6.54-2.37,4.64,22.12,4.72,26.78.31,18.07-1.45,36-3.62,53.92-3.91,32.3-16.7,61.07-34.25,88.56-9,14.15-19.62,28.46-34.28,37.29-6.75,4.06-14.88,4.74-21.54,8.25-7.77,4.07-3.54.78-7,8.87C342.75,520,341.2,534.5,339,546.48c-10.33,55-35.32,345.92-31,401.89.39,5-6.53,6.15-6.88.09-1.83-32.11,14.05-254.5,22.07-327.23s16.12-137,24.25-162.14c9.86-30.52,27.68-67.23,42.51-95.7A339.25,339.25,0,0,1,412.88,325.18Z" transform="translate(-107 -23.47)"/><path class="cls-8" d="M466.41,681.87c18.77-13.78,39.08,12.23,22.1,26-9.39,7.61-19.21,4.9-24.73-1.44-3.59,4.37-6.94,8.94-10.17,12.8-9.83,11.77-19.12,23.82-28,36.15-18.44,25.61-34.24,52.67-50.77,79.23-16.31,26.22-32.49,52.57-47.27,79.45-12.52,22.77-29.21,49.57-33.5,74.54,6.51-53,31.19-103.85,60.58-150.54,29.16-46.3,62.61-96.86,107.75-133.4C457.81,697.92,457.68,688.27,466.41,681.87Z" transform="translate(-107 -23.47)"/><path class="cls-5" d="M110.28,552.73c10.51,2,27.67,25.81,36.32,34.86A337.3,337.3,0,0,1,175,621.83a579.14,579.14,0,0,1,50.29,82c23.48,46.74,42.29,94.71,55.95,145.61a600.64,600.64,0,0,1,17,95.5c.61,6,6.95,52.67-2.19,53.93-8.21,1.13-5.68-35.4-6.07-40.37-4.48-56.06-17.9-110.61-36.58-163.45-4.06-11.52-7.84-25.61-14.34-36-4.69-7.46,0-4.86-8.27-7.69-7.07-2.42-15.12-1.83-22.36-4.8-15.72-6.45-28.31-19-39.34-31.55-21.45-24.47-38.44-50.94-47.3-82.29-4.91-17.39-9.43-34.87-11.93-52.79C109.2,575.33,103.52,551.41,110.28,552.73Z" transform="translate(-107 -23.47)"/><path class="cls-6" d="M151.73,157.45c39.56,68.6,72.07,144,93.06,220.3,12.72,46.25,21.61,93.7,30.45,140.82,13.68,72.95,26.62,145.89,30.3,220.14,3.71,74.68,11,160.81-13.42,232.73,12.21-73,.58-150.75-1.48-224.23-1-35.07-3.83-69.81-7.57-104.68C279.44,608.7,273.51,575,268,541.47c-2.69-16.34-5.52-32.66-8.39-49-.86-4.87-1.23-19.31-4.31-22.63s-19-4.72-23.94-7.17c-10-4.95-19.45-12-27.79-19.39-16-14.23-29.91-32.82-40.89-51.15C137.26,349.75,127.1,298,127.61,248.89c.1-9.54,15.44-112.22,9.28-113.63q.56-.66,1.05-1.35Q144.93,145.61,151.73,157.45Z" transform="translate(-107 -23.47)"/><path class="cls-6" d="M578.71,404.88c.61-.88,4.58-7,2.58-6.61,4.07-.8-5.6,6.75,4.55,2.12-4.82,4.55-2,10.46-2,16.59.11,9.94-1.56,19.81-3.43,29.54a202.44,202.44,0,0,1-13.77,44.64c-13.94,31.18-37.63,61.2-65.75,80.69-13.88,9.62-27.48,12.9-43.31,17.33-10,2.8-10.8,8-16.1,17.68-11.05,20.21-21.91,40.34-31.65,61.24C398.21,693,386.91,718,376.26,743.41c-35.9,85.51-65.12,174.1-80.46,265.79-.38-54,12.12-109.68,27.89-161.18,11.48-37.52,26.43-73.69,42.38-109.49,3.86-8.68,9.72-19.83,11.36-29.41,1.15-6.71-2.36-13.16-4-20.23-6.27-27.52-5.82-58.36-.32-86,6.07-30.52,23.63-44.68,53.33-49,10.87-1.58,24.67-1,34.63-5.63,10.85-5.05,15.33-21.62,21.5-32.27,16.58-28.58,36.27-56,58.88-80.08a189.9,189.9,0,0,1,20.14-18.53C566.12,413.75,575.64,409.32,578.71,404.88Z" transform="translate(-107 -23.47)"/><path class="cls-8" d="M245.55,950.69H353a2.53,2.53,0,0,1,1,.2c4.41,2,6.25,6,5.71,9.65l-11.33,76.85a9.23,9.23,0,0,1-9.13,7.88H257.51a9.22,9.22,0,0,1-9.13-7.88l-11.59-78.57a2.59,2.59,0,0,1,.05-1C238.12,953.13,241.81,950.69,245.55,950.69Z" transform="translate(-107 -23.47)"/></g><g id="Maceta"><path class="cls-2" d="M150.62,979.09c0,36.53,2.89,66.15,41.58,66.15s41.59-29.62,41.59-66.15" transform="translate(-107 -23.47)"/><path id="Fill-27" class="cls-2" d="M203.72,956.3a74.19,74.19,0,0,0-3.8,7.49A102.46,102.46,0,0,1,201,948c1.35-9.14,3.41-18.24,5.34-27.33,1.4-6.53,1.31-18.25,6.59-23.46,1.45-1.12,1.8,1.09,1.8,2,0,.2,0-3.9-1.41-3.19-8.36,4.32-11.07,17.89-13.74,24.69-3.91,9.92-7.23,20.06-8.6,30.38a68.73,68.73,0,0,0-.58,7.82c-.28-.7-.55-1.4-.84-2.09a141.19,141.19,0,0,0-19.46-32.54c-2-2.51-27.13-27.23-29.1-23.44a2.61,2.61,0,0,0,1.22,1.36s0,0,0,0c1.47,2.39,5.67,6.07,7,8.16a157.59,157.59,0,0,1,8.44,16.31c5.49,11.56,10.59,23.25,15.52,35,1.15,2.73,2.35,5.44,3.57,8.15-12.6-18.18-29.41-34.68-52.55-44.12,7.91,4,13.09,11.58,18.42,17.37,6.44,7,13.22,13.79,19.67,20.77,7.61,8.23,16.56,16.9,23.88,26,7.08,14.88,14,29.77,18.22,45.41-1.74-5.4-.13-12.87-.43-18.54a127.05,127.05,0,0,0-1.49-13.46,27.91,27.91,0,0,1,2,5.91c-.32-3.15-.68-6.27-1.08-9.39,1-2.91,2-5.63,2.68-7.86A201.92,201.92,0,0,1,219.16,958a302.09,302.09,0,0,1,17.53-30c3-4.54,6.06-9.06,9.1-13.6,2-3,3.87-7.71,6.63-10.56-17.86,16.33-37.37,32.78-48.7,52.38" transform="translate(-107 -23.47)"/></g><g id="Top-Leaves"><path class="cls-2" d="M1529.16,211.84c-5.12-17.08-17.14-30.44-29.62-42.69-24.3-23.84-37.36-38.59-46-73.47-5.09-20.51-10.28-42.25-26.43-57.13-11.76-10.84-32-19.94-47.72-12.18-24.19,14.44-30.69,44.07-28.25,70.61,3,32.89,18.39,53.17,47.9,65.28,16.63,6.82,27.68,15.83,36.71,31.51,7.22,12.55,11.43,28.25,20.51,39.62,13.56,17,30.54,24.56,51.46,21.74-19.59-36.07-42.49-72.47-70.12-102.83-2.58-3.05-17.83-14.73-14.75-19.94,3.38-5.72,19,15.79,18.93,15.66,8,9.22,15.45,19,22.75,28.89l-.06,0q11.27,15.21,22.26,30.86c3,4.4,5.83,8.87,8.59,13.45,4,6.71,10.45,25.77,17.07,29.9a10.76,10.76,0,0,0,3.94,1.58c4.51,7.39,8.9,14.84,13.08,22.37,10.9,19.68,20.26,40.46,24.56,62.67,1.25,6.49.36,30.75,4.79,35.43,8.09,8.56,5.72-7.93,5.24-12.91-4-41.21-18.82-76.32-40.3-111,6.6-8.62,7.55-30.56,5.48-37.48" transform="translate(-107 -23.47)"/><path class="cls-2" d="M1252,231.76c8.53-10.06,29-11.76,41.58-11.09,15.52.83,31.47,4.61,46.23,9.18,24.33,7.53,48,21.26,69.39,34.55,2.58,1.6,34.39,20.73,31.57,24.09s-34-19.4-41-23.31c-14.85-8.36-28.47-18.25-44.84-23.77-17-5.72-34.87-8-52.69-7.82-2.29,0-9.75-1.58-9.91,1.81s12.18,1.58,14.36,1.6a164,164,0,0,1,26.9,2.49,127.23,127.23,0,0,1,46.45,17.82c-4,9.22-13.49,13.48-23.47,11.17-8.62-2-17-6.92-25.48-8.34a38.6,38.6,0,0,0-17.28,1.24c-14.88,4.32-23.46,13.18-39.82,7-12.83-4.83-34.28-22.19-22-36.64" transform="translate(-107 -23.47)"/><path class="cls-2" d="M1261.63,137.15h4a135.23,135.23,0,0,0-1.51-15.3c-3.25-19-13.39-46.87-35.64-49.95a56.88,56.88,0,0,0-7.5.07,13.9,13.9,0,0,0-5.72-1.67c-19-1.38-40.1,13.74-49.24,29.47-7.37,12.69-6.13,29.35-1.58,42.82,3,9,9.7,21.89,20.79,22,13.87.15,14.54-16.81,14.81-26.73.36-13.18,2-24.67,12.54-33.65,2.45-2.1,5.13-3.94,7.6-6,3.87-3.23,8.15-6.54,8.65-11.89.68-7.37-3.52-8.7-9.95-7.33-1.09.23-12.13,5.13-10.49,1.26.49-1.18,2.32-2.12,4.61-2.82,6-.64,13-1.39,15.09-.94,22,4.77,30.59,34.94,32.86,54.11C1261.24,132.79,1261.45,135,1261.63,137.15Z" transform="translate(-107 -23.47)"/></g><g id="humaaan-12"><g id="Head"><path class="cls-9" d="M462.56,482.8c-4.75-10-6.77-21.22-3-32.18,10.88-31.59,53.8-12.5,58.16,6.08S510,516.22,498,516.11c-4.8-.05-13.61-5.45-21.78-13.93l-5.48,44.9-36.1-9.68Z" transform="translate(-107 -23.47)"/></g><path id="hair" class="cls-10" d="M475.66,483.89c-6.78,7.39-14.7,12.2-20.89,10.54-11.75-3.14-15.89-21.09-11.37-38,.16-.6.33-1.18.51-1.76-14.71,5.2-28.8,19.44-45.24,15-22.38-6-19.17-53.51,12.09-45.13,21.26,5.69,30.89,11.6,38.67,18.59a30.31,30.31,0,0,1,11.06-10.07,12.37,12.37,0,0,1,4.28-1.59,17.37,17.37,0,0,1,3.33-.48c6-.54,14.22.16,23.1,2.21,1.66.38,3.27.8,4.84,1.24a15.57,15.57,0,1,1,11.82,19.32,78.75,78.75,0,0,1-17.59-1.65,32.37,32.37,0,0,1-1.2,8.33,47.42,47.42,0,0,1-3.08,8.17,7.24,7.24,0,0,0-4.44-4.14,9.34,9.34,0,0,0-11.45,6.6C468.52,477,470.78,482.21,475.66,483.89Z" transform="translate(-107 -23.47)"/><polygon id="Leg" class="cls-11" points="281.67 651.5 338.6 847.67 365.38 994.96 392.25 994.96 365.43 651.5 281.67 651.5"/><path class="cls-9" d="M362.86,675c4,102.31,2.42,158.12,1.53,167.41s-6,71.56-40.49,180.53H352c45.73-104.54,61.69-166.8,66.94-180.53S439.63,772.85,462.25,675Z" transform="translate(-107 -23.47)"/><path id="Pant" class="cls-5" d="M387.31,675q22.28,101.5,77,324h39.4c2.91-152.28-9.47-252.51-30.91-324Z" transform="translate(-107 -23.47)"/><path class="cls-6" d="M362.72,675c3.9,102.13-6.21,202.74-37.5,325.54h42C413,897.71,445.75,797.59,468.15,675Z" transform="translate(-107 -23.47)"/><path id="Shoe" class="cls-10" d="M320,1042.13l1.55-24.92q13.57,4,34-3.11,22,15.55,55.31,21.25h0a3.11,3.11,0,0,1,2.54,3.59c0,.11,0,.22-.07.33l-2.14,7.54h-88.1Z" transform="translate(-107 -23.47)"/><path class="cls-10" d="M466.43,1042.13l1.54-24.92q13.57,4,34-3.11,22,15.55,55.3,21.25h0a3.11,3.11,0,0,1,2.55,3.59c0,.11-.05.22-.08.33l-2.13,7.54h-88.1Z" transform="translate(-107 -23.47)"/><path id="Skin" class="cls-9" d="M500,587.53l58.38-19.77q16.05-13.44,30.48-19.88c2.82-.64,7.53-.49,1.89,6.37s-11.26,14.34-9.48,17.07,7.8.42,9.73,4.78q1.92,4.36-30.13,7.4l-44.93,28.59Zm79,39.3,25.65-8.72q8.22-17.86,15.09-16.77c3.79-1-5.1,13.68,1.79,13.49s25.23-9.4,27.6-6.46c3.49,4.35-2.16,14.83-7.48,19.6-9.94,8.91-17.28,11.26-34.71,13q-13.68,1.34-30.75,9.6Z" transform="translate(-107 -23.47)"/><path id="Sleeve" class="cls-12" d="M475.21,576.46A132.77,132.77,0,0,0,549,567.83l6.32,25.08c-21.5,14.93-49.86,25.32-72.25,20.72C465.38,610,460.1,587,475.21,576.46Z" transform="translate(-107 -23.47)"/><path id="Clothes" class="cls-13" d="M493.75,618.15q28.38,12.65,102.66.09,11,38.93,7,54C559.77,686,523.87,689.31,495.54,685c-2.06,16.9-6.91,32.48-16.32,45.84-19.36,27.45-96.91-14.81-125.59-14.24-7.42-59.43,30.18-76.43,36.57-112.49,7-39.5,49.43-94.7,54.1-93.88l42.55,7.5C483.88,548.26,489.84,583.59,493.75,618.15Z" transform="translate(-107 -23.47)"/></g><g id="humaaan-3"><g id="Head-2" data-name="Head"><path class="cls-14" d="M1589.31,550.69,1553,540.94l17.73-41.54c-11.39,3.24-21.79,3.49-26,1.12-10.57-5.94-.59-47.37,12.54-61.24s60.16-8.85,53.82,23.9c-2.19,11.37-9.59,20.06-18.75,26.31Z" transform="translate(-107 -23.47)"/></g><path id="Hair-2" data-name="Hair" class="cls-10" d="M1572.32,445.64c-16.06-4-17.17-7.38-14.6-16.95,3.07-1.14,13-1.79,23.44.08a27.57,27.57,0,0,1,17,5.9c6.78,4,11.8,10.14,12.31,19.18,5.38,19.64-6.89,35.29-18.66,38.6-1.85-3.89-3.38-7.6-4.7-11.11a9.25,9.25,0,0,0,4.47-5.71,9.38,9.38,0,0,0-6.68-11.45,8.24,8.24,0,0,0-1.1-.22q-7.85,26-12.87,33.62c-5.19,7.85-22.56,5.46-28.42,3.89s-3.07-7.48-2.18-10.79c.54-2,5.87,2.22,6.77-1.15s-6.17-7.51-7.15-10.1c-1.2-3.15-.88-6.87,2-6.11,3.93,1.06,10,8.73,19,11.13q9,2.4,18.78-25.87C1577.77,453.1,1575.69,448.75,1572.32,445.64Z" transform="translate(-107 -23.47)"/><polygon id="Leg-2" data-name="Leg" class="cls-15" points="1394.52 653.59 1315.62 1011.61 1336 1011.61 1387.61 847.59 1464.56 653.59 1394.52 653.59"/><path class="cls-14" d="M1510.43,677.06c18.55,65.26,41.65,174.6,48.75,186.48q7.1,11.88,160.48,101l14-15q-130-103.9-131.9-108.15c-1.91-4.26-13.87-96.1-14.69-164.32Z" transform="translate(-107 -23.47)"/><path id="shoe-2" data-name="shoe" class="cls-16" d="M1735.46,944.7a3.15,3.15,0,0,0-3.86,2.2h0q-1.78,6.52-4,9.21-2.76,3.28-9.64,6.5l-6.62-2.1h0a1.57,1.57,0,0,0-1.94,1.07l-12.39,43.29q-2.6,4.25-6.68,10.52t6.87,11L1754,958.56a78.66,78.66,0,0,0-8.58-9q-2.67-2.24-9.75-4.74Z" transform="translate(-107 -23.47)"/><path class="cls-16" d="M1451.23,1027.72a3.14,3.14,0,0,0-4.16-1.55h0q-6.15,2.83-9.65,2.83-4.31,0-11.18-3.21l-2.64-6.42,0,0a1.55,1.55,0,0,0-2-.8l-41.15,18.34q-4.92.74-12.35,1.65t-4,12.31h88.48a78.06,78.06,0,0,0,1.42-12.39q0-3.48-2.63-10.51Z" transform="translate(-107 -23.47)"/><polygon id="Pant-2" data-name="Pant" class="cls-5" points="1474.58 653.59 1387.74 653.59 1315.88 984.46 1412.84 994.94 1474.58 653.59"/><path class="cls-6" d="M1610.47,812.68q-2.54-6-9.81-135.62H1502.9q13.3,147.3,30,180.64t117.16,142.66l63.6-75Q1613,818.7,1610.47,812.68Z" transform="translate(-107 -23.47)"/><path id="Skin-2" data-name="Skin" class="cls-14" d="M1457.69,670.05l-52.36,11.53q-25,20.55-26.71,16.09c-1.74-4.45,4.21-7.08,3.52-10.28s-10-4.51-18.92-5.39-5.65-4.31-3.2-5.86q14.87-5.64,35.87-7.49l55.63-27.32Zm185.45,107.62c1.43,4.86,15.41,21.32,25.41,31.08,4,3.92,1.43,7.57-.48,8.33-15.54,6.13-23-5.67-34.11-13.43-12.21-8.5-14.15,9.08-23.86,2.53,4.51-6.65,14.44-18.74,12.42-28.19q-1.35-6.29-14.31-107.62l32.3,5.57Q1640.23,767.72,1643.14,777.67Z" transform="translate(-107 -23.47)"/><path id="Coat-Back" class="cls-17" d="M1410.74,685.71,1399.3,665.1c68.4-32.65,103.2-110.92,160.28-144.78l13,4.63C1562.17,596.08,1518.44,691.31,1410.74,685.71Z" transform="translate(-107 -23.47)"/><path id="Shirt" class="cls-18" d="M1588.69,519.35l-35-.69c-11.35,64.34-55.12,106.85-72.1,150.46-1.47,3.78-3.85,11.36,1.55,12.32l118.2,20.84C1608.89,626.74,1608.94,569.46,1588.69,519.35Z" transform="translate(-107 -23.47)"/><path id="Coat-Front" class="cls-19" d="M1644,776.38l-25.35-4.47a320.18,320.18,0,0,1-10.13-35.07l-93-16.41Q1504,665,1577.27,518.18l10.78,1.28a21.41,21.41,0,0,1,3.21.34c21.22,3.74,34.57-2.5,47.17,3.89s14.93,19.51-1.47,39.69q-5.71,7-13.52,7.84Q1667.88,661.87,1644,776.38Z" transform="translate(-107 -23.47)"/><path id="Shade" class="cls-20" d="M1608.52,736.84,1574,730.75q12.79-14.76,23.62-50.53Q1602.82,712.75,1608.52,736.84Z" transform="translate(-107 -23.47)"/></g></svg>